<mxfile host="app.diagrams.net" modified="2024-02-01T16:44:47.767Z" agent="Mozilla/5.0 (Windows NT 10.0; Win64; x64; rv:122.0) Gecko/20100101 Firefox/122.0" etag="5ppoeYLhn23CAXmGu-AE" version="23.0.2" type="device">
  <diagram name="Page-1" id="0mQY2WVeEMqIlszFfs81">
    <mxGraphModel dx="920" dy="495" grid="1" gridSize="10" guides="1" tooltips="1" connect="1" arrows="1" fold="1" page="1" pageScale="1" pageWidth="850" pageHeight="1100" math="0" shadow="0">
      <root>
        <mxCell id="0" />
        <mxCell id="1" parent="0" />
        <mxCell id="tdRzF6rRa1mD0rIXAJgJ-1" value="USER" style="rounded=0;whiteSpace=wrap;html=1;" parent="1" vertex="1">
          <mxGeometry x="200" y="210" width="120" height="60" as="geometry" />
        </mxCell>
        <mxCell id="tdRzF6rRa1mD0rIXAJgJ-2" value="upload" style="shape=rhombus;perimeter=rhombusPerimeter;whiteSpace=wrap;html=1;align=center;" parent="1" vertex="1">
          <mxGeometry x="750" y="210" width="120" height="60" as="geometry" />
        </mxCell>
        <mxCell id="tdRzF6rRa1mD0rIXAJgJ-3" value="POST" style="rounded=0;whiteSpace=wrap;html=1;" parent="1" vertex="1">
          <mxGeometry x="920" y="210" width="120" height="60" as="geometry" />
        </mxCell>
        <mxCell id="tdRzF6rRa1mD0rIXAJgJ-4" value="" style="endArrow=none;html=1;rounded=0;exitX=1;exitY=0.5;exitDx=0;exitDy=0;entryX=0;entryY=0.5;entryDx=0;entryDy=0;" parent="1" source="tdRzF6rRa1mD0rIXAJgJ-1" target="tdRzF6rRa1mD0rIXAJgJ-37" edge="1">
          <mxGeometry width="50" height="50" relative="1" as="geometry">
            <mxPoint x="370" y="280" as="sourcePoint" />
            <mxPoint x="370" y="240" as="targetPoint" />
          </mxGeometry>
        </mxCell>
        <mxCell id="tdRzF6rRa1mD0rIXAJgJ-5" value="" style="endArrow=none;html=1;rounded=0;entryX=1;entryY=0.5;entryDx=0;entryDy=0;exitX=0;exitY=0.5;exitDx=0;exitDy=0;" parent="1" source="tdRzF6rRa1mD0rIXAJgJ-3" target="tdRzF6rRa1mD0rIXAJgJ-2" edge="1">
          <mxGeometry width="50" height="50" relative="1" as="geometry">
            <mxPoint x="720" y="288" as="sourcePoint" />
            <mxPoint x="770" y="238" as="targetPoint" />
          </mxGeometry>
        </mxCell>
        <mxCell id="tdRzF6rRa1mD0rIXAJgJ-6" value="(1, 1)" style="text;html=1;align=center;verticalAlign=middle;resizable=0;points=[];autosize=1;strokeColor=none;fillColor=none;" parent="1" vertex="1">
          <mxGeometry x="315" y="208" width="50" height="30" as="geometry" />
        </mxCell>
        <mxCell id="tdRzF6rRa1mD0rIXAJgJ-7" value="(0, n)" style="text;html=1;align=center;verticalAlign=middle;resizable=0;points=[];autosize=1;strokeColor=none;fillColor=none;" parent="1" vertex="1">
          <mxGeometry x="680" y="216" width="50" height="30" as="geometry" />
        </mxCell>
        <mxCell id="tdRzF6rRa1mD0rIXAJgJ-8" value="" style="endArrow=none;html=1;rounded=0;entryX=0;entryY=0;entryDx=0;entryDy=0;exitX=1;exitY=0.5;exitDx=0;exitDy=0;" parent="1" source="tdRzF6rRa1mD0rIXAJgJ-9" target="tdRzF6rRa1mD0rIXAJgJ-1" edge="1">
          <mxGeometry width="50" height="50" relative="1" as="geometry">
            <mxPoint x="150" y="210" as="sourcePoint" />
            <mxPoint x="160" y="230" as="targetPoint" />
          </mxGeometry>
        </mxCell>
        <mxCell id="tdRzF6rRa1mD0rIXAJgJ-9" value="" style="ellipse;whiteSpace=wrap;html=1;aspect=fixed;fillColor=#66B2FF;" parent="1" vertex="1">
          <mxGeometry x="142.5" y="208" width="10" height="10" as="geometry" />
        </mxCell>
        <mxCell id="tdRzF6rRa1mD0rIXAJgJ-11" value="id" style="text;html=1;align=center;verticalAlign=middle;resizable=0;points=[];autosize=1;strokeColor=none;fillColor=none;" parent="1" vertex="1">
          <mxGeometry x="95" y="198" width="30" height="30" as="geometry" />
        </mxCell>
        <mxCell id="tdRzF6rRa1mD0rIXAJgJ-12" value="" style="endArrow=none;html=1;rounded=0;entryX=-0.006;entryY=0.306;entryDx=0;entryDy=0;exitX=1;exitY=0.5;exitDx=0;exitDy=0;entryPerimeter=0;" parent="1" source="tdRzF6rRa1mD0rIXAJgJ-13" target="tdRzF6rRa1mD0rIXAJgJ-1" edge="1">
          <mxGeometry width="50" height="50" relative="1" as="geometry">
            <mxPoint x="152.5" y="230" as="sourcePoint" />
            <mxPoint x="202.5" y="230" as="targetPoint" />
          </mxGeometry>
        </mxCell>
        <mxCell id="tdRzF6rRa1mD0rIXAJgJ-13" value="" style="ellipse;whiteSpace=wrap;html=1;aspect=fixed;fillColor=#3399FF;" parent="1" vertex="1">
          <mxGeometry x="142.5" y="228" width="10" height="10" as="geometry" />
        </mxCell>
        <mxCell id="tdRzF6rRa1mD0rIXAJgJ-14" value="mail" style="text;html=1;align=center;verticalAlign=middle;resizable=0;points=[];autosize=1;strokeColor=none;fillColor=none;" parent="1" vertex="1">
          <mxGeometry x="87.5" y="218" width="50" height="30" as="geometry" />
        </mxCell>
        <mxCell id="tdRzF6rRa1mD0rIXAJgJ-15" value="" style="endArrow=none;html=1;rounded=0;exitX=1;exitY=0.5;exitDx=0;exitDy=0;entryX=0.01;entryY=0.647;entryDx=0;entryDy=0;entryPerimeter=0;" parent="1" source="tdRzF6rRa1mD0rIXAJgJ-17" target="tdRzF6rRa1mD0rIXAJgJ-1" edge="1">
          <mxGeometry width="50" height="50" relative="1" as="geometry">
            <mxPoint x="150" y="260" as="sourcePoint" />
            <mxPoint x="200" y="260" as="targetPoint" />
          </mxGeometry>
        </mxCell>
        <mxCell id="tdRzF6rRa1mD0rIXAJgJ-16" value="password" style="text;html=1;align=center;verticalAlign=middle;resizable=0;points=[];autosize=1;strokeColor=none;fillColor=none;" parent="1" vertex="1">
          <mxGeometry x="62.5" y="238" width="80" height="30" as="geometry" />
        </mxCell>
        <mxCell id="tdRzF6rRa1mD0rIXAJgJ-17" value="" style="ellipse;whiteSpace=wrap;html=1;aspect=fixed;fillColor=none;" parent="1" vertex="1">
          <mxGeometry x="142.5" y="248" width="10" height="10" as="geometry" />
        </mxCell>
        <mxCell id="tdRzF6rRa1mD0rIXAJgJ-18" value="" style="endArrow=none;html=1;rounded=0;exitX=1;exitY=0.5;exitDx=0;exitDy=0;entryX=0.008;entryY=0.971;entryDx=0;entryDy=0;entryPerimeter=0;" parent="1" source="tdRzF6rRa1mD0rIXAJgJ-19" target="tdRzF6rRa1mD0rIXAJgJ-1" edge="1">
          <mxGeometry width="50" height="50" relative="1" as="geometry">
            <mxPoint x="149" y="280" as="sourcePoint" />
            <mxPoint x="200" y="270" as="targetPoint" />
          </mxGeometry>
        </mxCell>
        <mxCell id="tdRzF6rRa1mD0rIXAJgJ-19" value="" style="ellipse;whiteSpace=wrap;html=1;aspect=fixed;" parent="1" vertex="1">
          <mxGeometry x="141.5" y="268" width="10" height="10" as="geometry" />
        </mxCell>
        <mxCell id="tdRzF6rRa1mD0rIXAJgJ-20" value="name" style="text;html=1;align=center;verticalAlign=middle;resizable=0;points=[];autosize=1;strokeColor=none;fillColor=none;" parent="1" vertex="1">
          <mxGeometry x="77.5" y="258" width="60" height="30" as="geometry" />
        </mxCell>
        <mxCell id="tdRzF6rRa1mD0rIXAJgJ-21" value="(0, 1)" style="text;html=1;align=center;verticalAlign=middle;resizable=0;points=[];autosize=1;strokeColor=none;fillColor=none;" parent="1" vertex="1">
          <mxGeometry x="141.5" y="270" width="50" height="30" as="geometry" />
        </mxCell>
        <mxCell id="tdRzF6rRa1mD0rIXAJgJ-22" value="" style="endArrow=none;html=1;rounded=0;exitX=1;exitY=0.25;exitDx=0;exitDy=0;entryX=0;entryY=0.5;entryDx=0;entryDy=0;" parent="1" source="tdRzF6rRa1mD0rIXAJgJ-3" target="tdRzF6rRa1mD0rIXAJgJ-24" edge="1">
          <mxGeometry width="50" height="50" relative="1" as="geometry">
            <mxPoint x="1070" y="268" as="sourcePoint" />
            <mxPoint x="1080" y="218" as="targetPoint" />
          </mxGeometry>
        </mxCell>
        <mxCell id="tdRzF6rRa1mD0rIXAJgJ-24" value="" style="ellipse;whiteSpace=wrap;html=1;aspect=fixed;" parent="1" vertex="1">
          <mxGeometry x="1080" y="228" width="10" height="10" as="geometry" />
        </mxCell>
        <mxCell id="tdRzF6rRa1mD0rIXAJgJ-25" value="image" style="text;html=1;align=center;verticalAlign=middle;resizable=0;points=[];autosize=1;strokeColor=none;fillColor=none;" parent="1" vertex="1">
          <mxGeometry x="1090" y="218" width="60" height="30" as="geometry" />
        </mxCell>
        <mxCell id="tdRzF6rRa1mD0rIXAJgJ-26" value="(1, 10)" style="text;html=1;align=center;verticalAlign=middle;resizable=0;points=[];autosize=1;strokeColor=none;fillColor=none;fontSize=7;" parent="1" vertex="1">
          <mxGeometry x="1040" y="213" width="40" height="20" as="geometry" />
        </mxCell>
        <mxCell id="tdRzF6rRa1mD0rIXAJgJ-27" value="" style="ellipse;whiteSpace=wrap;html=1;aspect=fixed;" parent="1" vertex="1">
          <mxGeometry x="1080" y="248" width="10" height="10" as="geometry" />
        </mxCell>
        <mxCell id="tdRzF6rRa1mD0rIXAJgJ-28" value="" style="endArrow=none;html=1;rounded=0;exitX=0.996;exitY=0.586;exitDx=0;exitDy=0;entryX=0;entryY=0.5;entryDx=0;entryDy=0;exitPerimeter=0;" parent="1" source="tdRzF6rRa1mD0rIXAJgJ-3" target="tdRzF6rRa1mD0rIXAJgJ-27" edge="1">
          <mxGeometry width="50" height="50" relative="1" as="geometry">
            <mxPoint x="1040" y="230" as="sourcePoint" />
            <mxPoint x="1080" y="230" as="targetPoint" />
          </mxGeometry>
        </mxCell>
        <mxCell id="tdRzF6rRa1mD0rIXAJgJ-29" value="description" style="text;html=1;align=center;verticalAlign=middle;resizable=0;points=[];autosize=1;strokeColor=none;fillColor=none;" parent="1" vertex="1">
          <mxGeometry x="1090" y="236" width="80" height="30" as="geometry" />
        </mxCell>
        <mxCell id="tdRzF6rRa1mD0rIXAJgJ-30" value="(0, 1)" style="text;html=1;align=center;verticalAlign=middle;resizable=0;points=[];autosize=1;strokeColor=none;fillColor=none;fontSize=7;" parent="1" vertex="1">
          <mxGeometry x="1040" y="230" width="40" height="20" as="geometry" />
        </mxCell>
        <mxCell id="tdRzF6rRa1mD0rIXAJgJ-31" value="" style="endArrow=none;html=1;rounded=0;exitX=1.002;exitY=0.928;exitDx=0;exitDy=0;exitPerimeter=0;entryX=0.005;entryY=0.39;entryDx=0;entryDy=0;entryPerimeter=0;" parent="1" source="tdRzF6rRa1mD0rIXAJgJ-3" target="tdRzF6rRa1mD0rIXAJgJ-32" edge="1">
          <mxGeometry width="50" height="50" relative="1" as="geometry">
            <mxPoint x="1050" y="288" as="sourcePoint" />
            <mxPoint x="1090" y="258" as="targetPoint" />
          </mxGeometry>
        </mxCell>
        <mxCell id="tdRzF6rRa1mD0rIXAJgJ-32" value="" style="ellipse;whiteSpace=wrap;html=1;aspect=fixed;" parent="1" vertex="1">
          <mxGeometry x="1080" y="268" width="10" height="10" as="geometry" />
        </mxCell>
        <mxCell id="tdRzF6rRa1mD0rIXAJgJ-34" value="" style="endArrow=none;html=1;rounded=0;exitX=0.898;exitY=0.005;exitDx=0;exitDy=0;exitPerimeter=0;entryX=0;entryY=0.5;entryDx=0;entryDy=0;" parent="1" source="tdRzF6rRa1mD0rIXAJgJ-3" target="tdRzF6rRa1mD0rIXAJgJ-35" edge="1">
          <mxGeometry width="50" height="50" relative="1" as="geometry">
            <mxPoint x="1040" y="208" as="sourcePoint" />
            <mxPoint x="1080" y="208" as="targetPoint" />
            <Array as="points">
              <mxPoint x="1028" y="208" />
            </Array>
          </mxGeometry>
        </mxCell>
        <mxCell id="tdRzF6rRa1mD0rIXAJgJ-35" value="" style="ellipse;whiteSpace=wrap;html=1;aspect=fixed;fontColor=#3399FF;fillColor=#3399FF;" parent="1" vertex="1">
          <mxGeometry x="1080" y="206" width="10" height="10" as="geometry" />
        </mxCell>
        <mxCell id="tdRzF6rRa1mD0rIXAJgJ-36" value="id" style="text;html=1;align=center;verticalAlign=middle;resizable=0;points=[];autosize=1;strokeColor=none;fillColor=none;" parent="1" vertex="1">
          <mxGeometry x="1095" y="196" width="30" height="30" as="geometry" />
        </mxCell>
        <mxCell id="tdRzF6rRa1mD0rIXAJgJ-37" value="has" style="shape=rhombus;perimeter=rhombusPerimeter;whiteSpace=wrap;html=1;align=center;" parent="1" vertex="1">
          <mxGeometry x="365" y="210" width="120" height="60" as="geometry" />
        </mxCell>
        <mxCell id="tdRzF6rRa1mD0rIXAJgJ-39" value="PROFILE" style="rounded=0;whiteSpace=wrap;html=1;" parent="1" vertex="1">
          <mxGeometry x="560" y="210" width="120" height="60" as="geometry" />
        </mxCell>
        <mxCell id="tdRzF6rRa1mD0rIXAJgJ-40" value="" style="endArrow=none;html=1;rounded=0;exitX=1;exitY=0.5;exitDx=0;exitDy=0;entryX=0;entryY=0.5;entryDx=0;entryDy=0;" parent="1" source="tdRzF6rRa1mD0rIXAJgJ-37" target="tdRzF6rRa1mD0rIXAJgJ-39" edge="1">
          <mxGeometry width="50" height="50" relative="1" as="geometry">
            <mxPoint x="540" y="380" as="sourcePoint" />
            <mxPoint x="590" y="330" as="targetPoint" />
          </mxGeometry>
        </mxCell>
        <mxCell id="tdRzF6rRa1mD0rIXAJgJ-41" value="(1, 1)" style="text;html=1;align=center;verticalAlign=middle;resizable=0;points=[];autosize=1;strokeColor=none;fillColor=none;" parent="1" vertex="1">
          <mxGeometry x="510" y="210" width="50" height="30" as="geometry" />
        </mxCell>
        <mxCell id="tdRzF6rRa1mD0rIXAJgJ-42" value="" style="endArrow=none;html=1;rounded=0;exitX=1;exitY=0.5;exitDx=0;exitDy=0;entryX=0;entryY=0.5;entryDx=0;entryDy=0;" parent="1" source="tdRzF6rRa1mD0rIXAJgJ-39" target="tdRzF6rRa1mD0rIXAJgJ-2" edge="1">
          <mxGeometry width="50" height="50" relative="1" as="geometry">
            <mxPoint x="710" y="290" as="sourcePoint" />
            <mxPoint x="760" y="240" as="targetPoint" />
          </mxGeometry>
        </mxCell>
        <mxCell id="tdRzF6rRa1mD0rIXAJgJ-43" value="(1, 1)" style="text;html=1;align=center;verticalAlign=middle;resizable=0;points=[];autosize=1;strokeColor=none;fillColor=none;" parent="1" vertex="1">
          <mxGeometry x="870" y="216" width="50" height="30" as="geometry" />
        </mxCell>
        <mxCell id="tdRzF6rRa1mD0rIXAJgJ-44" value="date" style="text;html=1;align=center;verticalAlign=middle;resizable=0;points=[];autosize=1;strokeColor=none;fillColor=none;" parent="1" vertex="1">
          <mxGeometry x="1085" y="258" width="50" height="30" as="geometry" />
        </mxCell>
        <mxCell id="tdRzF6rRa1mD0rIXAJgJ-45" value="" style="endArrow=none;html=1;rounded=0;entryX=0.5;entryY=1;entryDx=0;entryDy=0;exitX=0;exitY=0.5;exitDx=0;exitDy=0;" parent="1" source="tdRzF6rRa1mD0rIXAJgJ-46" target="tdRzF6rRa1mD0rIXAJgJ-39" edge="1">
          <mxGeometry width="50" height="50" relative="1" as="geometry">
            <mxPoint x="620" y="370" as="sourcePoint" />
            <mxPoint x="690" y="340" as="targetPoint" />
            <Array as="points">
              <mxPoint x="620" y="370" />
            </Array>
          </mxGeometry>
        </mxCell>
        <mxCell id="tdRzF6rRa1mD0rIXAJgJ-46" value="post comment" style="shape=rhombus;perimeter=rhombusPerimeter;whiteSpace=wrap;html=1;align=center;" parent="1" vertex="1">
          <mxGeometry x="750" y="340" width="120" height="60" as="geometry" />
        </mxCell>
        <mxCell id="tdRzF6rRa1mD0rIXAJgJ-47" value="" style="endArrow=none;html=1;rounded=0;entryX=1;entryY=0.5;entryDx=0;entryDy=0;exitX=0.5;exitY=1;exitDx=0;exitDy=0;" parent="1" source="tdRzF6rRa1mD0rIXAJgJ-3" target="tdRzF6rRa1mD0rIXAJgJ-46" edge="1">
          <mxGeometry width="50" height="50" relative="1" as="geometry">
            <mxPoint x="1060" y="378" as="sourcePoint" />
            <mxPoint x="930" y="278" as="targetPoint" />
            <Array as="points">
              <mxPoint x="980" y="370" />
            </Array>
          </mxGeometry>
        </mxCell>
        <mxCell id="tdRzF6rRa1mD0rIXAJgJ-48" value="(0, n)" style="text;html=1;align=center;verticalAlign=middle;resizable=0;points=[];autosize=1;strokeColor=none;fillColor=none;" parent="1" vertex="1">
          <mxGeometry x="610" y="340" width="50" height="30" as="geometry" />
        </mxCell>
        <mxCell id="tdRzF6rRa1mD0rIXAJgJ-49" value="(0, n)" style="text;html=1;align=center;verticalAlign=middle;resizable=0;points=[];autosize=1;strokeColor=none;fillColor=none;" parent="1" vertex="1">
          <mxGeometry x="930" y="340" width="50" height="30" as="geometry" />
        </mxCell>
        <mxCell id="tdRzF6rRa1mD0rIXAJgJ-50" value="" style="endArrow=none;html=1;rounded=0;entryX=0.207;entryY=0.723;entryDx=0;entryDy=0;exitX=0.5;exitY=0;exitDx=0;exitDy=0;entryPerimeter=0;" parent="1" source="tdRzF6rRa1mD0rIXAJgJ-52" target="tdRzF6rRa1mD0rIXAJgJ-46" edge="1">
          <mxGeometry width="50" height="50" relative="1" as="geometry">
            <mxPoint x="780" y="410" as="sourcePoint" />
            <mxPoint x="800" y="420" as="targetPoint" />
          </mxGeometry>
        </mxCell>
        <mxCell id="tdRzF6rRa1mD0rIXAJgJ-51" value="date" style="text;html=1;align=center;verticalAlign=middle;resizable=0;points=[];autosize=1;strokeColor=none;fillColor=none;" parent="1" vertex="1">
          <mxGeometry x="750" y="410" width="50" height="30" as="geometry" />
        </mxCell>
        <mxCell id="tdRzF6rRa1mD0rIXAJgJ-52" value="" style="ellipse;whiteSpace=wrap;html=1;aspect=fixed;" parent="1" vertex="1">
          <mxGeometry x="770" y="400" width="10" height="10" as="geometry" />
        </mxCell>
        <mxCell id="tdRzF6rRa1mD0rIXAJgJ-53" value="" style="endArrow=none;html=1;rounded=0;entryX=0.791;entryY=0.711;entryDx=0;entryDy=0;exitX=0.5;exitY=0;exitDx=0;exitDy=0;entryPerimeter=0;" parent="1" source="tdRzF6rRa1mD0rIXAJgJ-55" target="tdRzF6rRa1mD0rIXAJgJ-46" edge="1">
          <mxGeometry width="50" height="50" relative="1" as="geometry">
            <mxPoint x="850" y="417" as="sourcePoint" />
            <mxPoint x="845" y="390" as="targetPoint" />
          </mxGeometry>
        </mxCell>
        <mxCell id="tdRzF6rRa1mD0rIXAJgJ-54" value="content" style="text;html=1;align=center;verticalAlign=middle;resizable=0;points=[];autosize=1;strokeColor=none;fillColor=none;" parent="1" vertex="1">
          <mxGeometry x="815" y="410" width="60" height="30" as="geometry" />
        </mxCell>
        <mxCell id="tdRzF6rRa1mD0rIXAJgJ-55" value="" style="ellipse;whiteSpace=wrap;html=1;aspect=fixed;" parent="1" vertex="1">
          <mxGeometry x="840" y="400" width="10" height="10" as="geometry" />
        </mxCell>
        <mxCell id="tdRzF6rRa1mD0rIXAJgJ-56" value="" style="endArrow=none;html=1;rounded=0;exitX=0;exitY=0;exitDx=0;exitDy=0;entryX=0;entryY=0.5;entryDx=0;entryDy=0;" parent="1" source="tdRzF6rRa1mD0rIXAJgJ-39" target="tdRzF6rRa1mD0rIXAJgJ-58" edge="1">
          <mxGeometry width="50" height="50" relative="1" as="geometry">
            <mxPoint x="560" y="180" as="sourcePoint" />
            <mxPoint x="560" y="140" as="targetPoint" />
            <Array as="points">
              <mxPoint x="520" y="140" />
            </Array>
          </mxGeometry>
        </mxCell>
        <mxCell id="tdRzF6rRa1mD0rIXAJgJ-57" value="" style="endArrow=none;html=1;rounded=0;exitX=1;exitY=0;exitDx=0;exitDy=0;entryX=1;entryY=0.5;entryDx=0;entryDy=0;" parent="1" source="tdRzF6rRa1mD0rIXAJgJ-39" target="tdRzF6rRa1mD0rIXAJgJ-58" edge="1">
          <mxGeometry width="50" height="50" relative="1" as="geometry">
            <mxPoint x="680" y="208" as="sourcePoint" />
            <mxPoint x="680" y="150" as="targetPoint" />
            <Array as="points">
              <mxPoint x="740" y="140" />
            </Array>
          </mxGeometry>
        </mxCell>
        <mxCell id="tdRzF6rRa1mD0rIXAJgJ-58" value="follow" style="shape=rhombus;perimeter=rhombusPerimeter;whiteSpace=wrap;html=1;align=center;" parent="1" vertex="1">
          <mxGeometry x="560" y="40" width="120" height="60" as="geometry" />
        </mxCell>
        <mxCell id="tdRzF6rRa1mD0rIXAJgJ-59" value="" style="endArrow=none;html=1;rounded=0;exitX=0.107;exitY=-0.022;exitDx=0;exitDy=0;entryX=0.5;entryY=0;entryDx=0;entryDy=0;exitPerimeter=0;" parent="1" source="tdRzF6rRa1mD0rIXAJgJ-39" target="tdRzF6rRa1mD0rIXAJgJ-60" edge="1">
          <mxGeometry width="50" height="50" relative="1" as="geometry">
            <mxPoint x="570" y="230" as="sourcePoint" />
            <mxPoint x="520" y="300" as="targetPoint" />
            <Array as="points">
              <mxPoint x="573" y="190" />
            </Array>
          </mxGeometry>
        </mxCell>
        <mxCell id="tdRzF6rRa1mD0rIXAJgJ-60" value="" style="ellipse;whiteSpace=wrap;html=1;aspect=fixed;fillColor=#3399FF;" parent="1" vertex="1">
          <mxGeometry x="570" y="140" width="10" height="10" as="geometry" />
        </mxCell>
        <mxCell id="tdRzF6rRa1mD0rIXAJgJ-61" value="id" style="text;html=1;align=center;verticalAlign=middle;resizable=0;points=[];autosize=1;strokeColor=none;fillColor=none;" parent="1" vertex="1">
          <mxGeometry x="560" y="110" width="30" height="30" as="geometry" />
        </mxCell>
        <mxCell id="tdRzF6rRa1mD0rIXAJgJ-62" value="" style="ellipse;whiteSpace=wrap;html=1;aspect=fixed;fillColor=#3399FF;" parent="1" vertex="1">
          <mxGeometry x="600" y="158" width="10" height="10" as="geometry" />
        </mxCell>
        <mxCell id="tdRzF6rRa1mD0rIXAJgJ-63" value="username" style="text;html=1;align=center;verticalAlign=middle;resizable=0;points=[];autosize=1;strokeColor=none;fillColor=none;" parent="1" vertex="1">
          <mxGeometry x="580" y="130" width="80" height="30" as="geometry" />
        </mxCell>
        <mxCell id="tdRzF6rRa1mD0rIXAJgJ-66" value="" style="endArrow=none;html=1;rounded=0;exitX=0.372;exitY=-0.017;exitDx=0;exitDy=0;exitPerimeter=0;entryX=0.391;entryY=1.118;entryDx=0;entryDy=0;entryPerimeter=0;" parent="1" source="tdRzF6rRa1mD0rIXAJgJ-39" target="tdRzF6rRa1mD0rIXAJgJ-62" edge="1">
          <mxGeometry width="50" height="50" relative="1" as="geometry">
            <mxPoint x="600" y="240" as="sourcePoint" />
            <mxPoint x="602" y="190" as="targetPoint" />
          </mxGeometry>
        </mxCell>
        <mxCell id="tdRzF6rRa1mD0rIXAJgJ-67" value="" style="endArrow=none;html=1;rounded=0;exitX=0.618;exitY=-0.006;exitDx=0;exitDy=0;exitPerimeter=0;entryX=0.5;entryY=1;entryDx=0;entryDy=0;" parent="1" source="tdRzF6rRa1mD0rIXAJgJ-39" target="tdRzF6rRa1mD0rIXAJgJ-68" edge="1">
          <mxGeometry width="50" height="50" relative="1" as="geometry">
            <mxPoint x="630" y="240" as="sourcePoint" />
            <mxPoint x="634" y="200" as="targetPoint" />
          </mxGeometry>
        </mxCell>
        <mxCell id="tdRzF6rRa1mD0rIXAJgJ-68" value="" style="ellipse;whiteSpace=wrap;html=1;aspect=fixed;fillColor=none;" parent="1" vertex="1">
          <mxGeometry x="630" y="180" width="10" height="10" as="geometry" />
        </mxCell>
        <mxCell id="tdRzF6rRa1mD0rIXAJgJ-69" value="profile_picture" style="text;html=1;align=center;verticalAlign=middle;resizable=0;points=[];autosize=1;strokeColor=none;fillColor=none;" parent="1" vertex="1">
          <mxGeometry x="610" y="158" width="100" height="30" as="geometry" />
        </mxCell>
        <mxCell id="tdRzF6rRa1mD0rIXAJgJ-70" value="(0, n)" style="text;html=1;align=center;verticalAlign=middle;resizable=0;points=[];autosize=1;strokeColor=none;fillColor=none;" parent="1" vertex="1">
          <mxGeometry x="475" y="118" width="50" height="30" as="geometry" />
        </mxCell>
        <mxCell id="tdRzF6rRa1mD0rIXAJgJ-71" value="(0, n)" style="text;html=1;align=center;verticalAlign=middle;resizable=0;points=[];autosize=1;strokeColor=none;fillColor=none;" parent="1" vertex="1">
          <mxGeometry x="730" y="120" width="50" height="30" as="geometry" />
        </mxCell>
        <mxCell id="tdRzF6rRa1mD0rIXAJgJ-72" value="&lt;p style=&quot;line-height: 50%;&quot;&gt;&lt;font style=&quot;font-size: 7px;&quot;&gt;(0, 1)&lt;br&gt;&lt;/font&gt;&lt;/p&gt;" style="text;html=1;align=center;verticalAlign=middle;resizable=0;points=[];autosize=1;strokeColor=none;fillColor=none;" parent="1" vertex="1">
          <mxGeometry x="640" y="168" width="40" height="50" as="geometry" />
        </mxCell>
        <mxCell id="cBmHabTKtmrv-qyFzmQj-1" value="users" style="shape=table;startSize=30;container=1;collapsible=1;childLayout=tableLayout;fixedRows=1;rowLines=0;fontStyle=1;align=center;resizeLast=1;html=1;" parent="1" vertex="1">
          <mxGeometry x="191.5" y="710" width="180" height="150" as="geometry" />
        </mxCell>
        <mxCell id="cBmHabTKtmrv-qyFzmQj-2" value="" style="shape=tableRow;horizontal=0;startSize=0;swimlaneHead=0;swimlaneBody=0;fillColor=none;collapsible=0;dropTarget=0;points=[[0,0.5],[1,0.5]];portConstraint=eastwest;top=0;left=0;right=0;bottom=1;" parent="cBmHabTKtmrv-qyFzmQj-1" vertex="1">
          <mxGeometry y="30" width="180" height="30" as="geometry" />
        </mxCell>
        <mxCell id="cBmHabTKtmrv-qyFzmQj-3" value="PK" style="shape=partialRectangle;connectable=0;fillColor=none;top=0;left=0;bottom=0;right=0;fontStyle=1;overflow=hidden;whiteSpace=wrap;html=1;" parent="cBmHabTKtmrv-qyFzmQj-2" vertex="1">
          <mxGeometry width="30" height="30" as="geometry">
            <mxRectangle width="30" height="30" as="alternateBounds" />
          </mxGeometry>
        </mxCell>
        <mxCell id="cBmHabTKtmrv-qyFzmQj-4" value="id" style="shape=partialRectangle;connectable=0;fillColor=none;top=0;left=0;bottom=0;right=0;align=left;spacingLeft=6;fontStyle=5;overflow=hidden;whiteSpace=wrap;html=1;" parent="cBmHabTKtmrv-qyFzmQj-2" vertex="1">
          <mxGeometry x="30" width="150" height="30" as="geometry">
            <mxRectangle width="150" height="30" as="alternateBounds" />
          </mxGeometry>
        </mxCell>
        <mxCell id="cBmHabTKtmrv-qyFzmQj-5" value="" style="shape=tableRow;horizontal=0;startSize=0;swimlaneHead=0;swimlaneBody=0;fillColor=none;collapsible=0;dropTarget=0;points=[[0,0.5],[1,0.5]];portConstraint=eastwest;top=0;left=0;right=0;bottom=0;" parent="cBmHabTKtmrv-qyFzmQj-1" vertex="1">
          <mxGeometry y="60" width="180" height="30" as="geometry" />
        </mxCell>
        <mxCell id="cBmHabTKtmrv-qyFzmQj-6" value="UQ" style="shape=partialRectangle;connectable=0;fillColor=none;top=0;left=0;bottom=0;right=0;editable=1;overflow=hidden;whiteSpace=wrap;html=1;" parent="cBmHabTKtmrv-qyFzmQj-5" vertex="1">
          <mxGeometry width="30" height="30" as="geometry">
            <mxRectangle width="30" height="30" as="alternateBounds" />
          </mxGeometry>
        </mxCell>
        <mxCell id="cBmHabTKtmrv-qyFzmQj-7" value="email" style="shape=partialRectangle;connectable=0;fillColor=none;top=0;left=0;bottom=0;right=0;align=left;spacingLeft=6;overflow=hidden;whiteSpace=wrap;html=1;" parent="cBmHabTKtmrv-qyFzmQj-5" vertex="1">
          <mxGeometry x="30" width="150" height="30" as="geometry">
            <mxRectangle width="150" height="30" as="alternateBounds" />
          </mxGeometry>
        </mxCell>
        <mxCell id="cBmHabTKtmrv-qyFzmQj-8" value="" style="shape=tableRow;horizontal=0;startSize=0;swimlaneHead=0;swimlaneBody=0;fillColor=none;collapsible=0;dropTarget=0;points=[[0,0.5],[1,0.5]];portConstraint=eastwest;top=0;left=0;right=0;bottom=0;" parent="cBmHabTKtmrv-qyFzmQj-1" vertex="1">
          <mxGeometry y="90" width="180" height="30" as="geometry" />
        </mxCell>
        <mxCell id="cBmHabTKtmrv-qyFzmQj-9" value="" style="shape=partialRectangle;connectable=0;fillColor=none;top=0;left=0;bottom=0;right=0;editable=1;overflow=hidden;whiteSpace=wrap;html=1;" parent="cBmHabTKtmrv-qyFzmQj-8" vertex="1">
          <mxGeometry width="30" height="30" as="geometry">
            <mxRectangle width="30" height="30" as="alternateBounds" />
          </mxGeometry>
        </mxCell>
        <mxCell id="cBmHabTKtmrv-qyFzmQj-10" value="password" style="shape=partialRectangle;connectable=0;fillColor=none;top=0;left=0;bottom=0;right=0;align=left;spacingLeft=6;overflow=hidden;whiteSpace=wrap;html=1;" parent="cBmHabTKtmrv-qyFzmQj-8" vertex="1">
          <mxGeometry x="30" width="150" height="30" as="geometry">
            <mxRectangle width="150" height="30" as="alternateBounds" />
          </mxGeometry>
        </mxCell>
        <mxCell id="cBmHabTKtmrv-qyFzmQj-11" value="" style="shape=tableRow;horizontal=0;startSize=0;swimlaneHead=0;swimlaneBody=0;fillColor=none;collapsible=0;dropTarget=0;points=[[0,0.5],[1,0.5]];portConstraint=eastwest;top=0;left=0;right=0;bottom=0;" parent="cBmHabTKtmrv-qyFzmQj-1" vertex="1">
          <mxGeometry y="120" width="180" height="30" as="geometry" />
        </mxCell>
        <mxCell id="cBmHabTKtmrv-qyFzmQj-12" value="" style="shape=partialRectangle;connectable=0;fillColor=none;top=0;left=0;bottom=0;right=0;editable=1;overflow=hidden;whiteSpace=wrap;html=1;" parent="cBmHabTKtmrv-qyFzmQj-11" vertex="1">
          <mxGeometry width="30" height="30" as="geometry">
            <mxRectangle width="30" height="30" as="alternateBounds" />
          </mxGeometry>
        </mxCell>
        <mxCell id="cBmHabTKtmrv-qyFzmQj-13" value="name" style="shape=partialRectangle;connectable=0;fillColor=none;top=0;left=0;bottom=0;right=0;align=left;spacingLeft=6;overflow=hidden;whiteSpace=wrap;html=1;" parent="cBmHabTKtmrv-qyFzmQj-11" vertex="1">
          <mxGeometry x="30" width="150" height="30" as="geometry">
            <mxRectangle width="150" height="30" as="alternateBounds" />
          </mxGeometry>
        </mxCell>
        <mxCell id="cBmHabTKtmrv-qyFzmQj-14" value="profiles" style="shape=table;startSize=30;container=1;collapsible=1;childLayout=tableLayout;fixedRows=1;rowLines=0;fontStyle=1;align=center;resizeLast=1;html=1;" parent="1" vertex="1">
          <mxGeometry x="576.5" y="710" width="180" height="150" as="geometry" />
        </mxCell>
        <mxCell id="cBmHabTKtmrv-qyFzmQj-15" value="" style="shape=tableRow;horizontal=0;startSize=0;swimlaneHead=0;swimlaneBody=0;fillColor=none;collapsible=0;dropTarget=0;points=[[0,0.5],[1,0.5]];portConstraint=eastwest;top=0;left=0;right=0;bottom=1;" parent="cBmHabTKtmrv-qyFzmQj-14" vertex="1">
          <mxGeometry y="30" width="180" height="30" as="geometry" />
        </mxCell>
        <mxCell id="cBmHabTKtmrv-qyFzmQj-16" value="PK" style="shape=partialRectangle;connectable=0;fillColor=none;top=0;left=0;bottom=0;right=0;fontStyle=1;overflow=hidden;whiteSpace=wrap;html=1;" parent="cBmHabTKtmrv-qyFzmQj-15" vertex="1">
          <mxGeometry width="30" height="30" as="geometry">
            <mxRectangle width="30" height="30" as="alternateBounds" />
          </mxGeometry>
        </mxCell>
        <mxCell id="cBmHabTKtmrv-qyFzmQj-17" value="id" style="shape=partialRectangle;connectable=0;fillColor=none;top=0;left=0;bottom=0;right=0;align=left;spacingLeft=6;fontStyle=5;overflow=hidden;whiteSpace=wrap;html=1;" parent="cBmHabTKtmrv-qyFzmQj-15" vertex="1">
          <mxGeometry x="30" width="150" height="30" as="geometry">
            <mxRectangle width="150" height="30" as="alternateBounds" />
          </mxGeometry>
        </mxCell>
        <mxCell id="cBmHabTKtmrv-qyFzmQj-30" style="shape=tableRow;horizontal=0;startSize=0;swimlaneHead=0;swimlaneBody=0;fillColor=none;collapsible=0;dropTarget=0;points=[[0,0.5],[1,0.5]];portConstraint=eastwest;top=0;left=0;right=0;bottom=0;" parent="cBmHabTKtmrv-qyFzmQj-14" vertex="1">
          <mxGeometry y="60" width="180" height="30" as="geometry" />
        </mxCell>
        <mxCell id="cBmHabTKtmrv-qyFzmQj-31" value="FK" style="shape=partialRectangle;connectable=0;fillColor=none;top=0;left=0;bottom=0;right=0;editable=1;overflow=hidden;whiteSpace=wrap;html=1;" parent="cBmHabTKtmrv-qyFzmQj-30" vertex="1">
          <mxGeometry width="30" height="30" as="geometry">
            <mxRectangle width="30" height="30" as="alternateBounds" />
          </mxGeometry>
        </mxCell>
        <mxCell id="cBmHabTKtmrv-qyFzmQj-32" value="user_id" style="shape=partialRectangle;connectable=0;fillColor=none;top=0;left=0;bottom=0;right=0;align=left;spacingLeft=6;overflow=hidden;whiteSpace=wrap;html=1;" parent="cBmHabTKtmrv-qyFzmQj-30" vertex="1">
          <mxGeometry x="30" width="150" height="30" as="geometry">
            <mxRectangle width="150" height="30" as="alternateBounds" />
          </mxGeometry>
        </mxCell>
        <mxCell id="cBmHabTKtmrv-qyFzmQj-18" value="" style="shape=tableRow;horizontal=0;startSize=0;swimlaneHead=0;swimlaneBody=0;fillColor=none;collapsible=0;dropTarget=0;points=[[0,0.5],[1,0.5]];portConstraint=eastwest;top=0;left=0;right=0;bottom=0;" parent="cBmHabTKtmrv-qyFzmQj-14" vertex="1">
          <mxGeometry y="90" width="180" height="30" as="geometry" />
        </mxCell>
        <mxCell id="cBmHabTKtmrv-qyFzmQj-19" value="UQ" style="shape=partialRectangle;connectable=0;fillColor=none;top=0;left=0;bottom=0;right=0;editable=1;overflow=hidden;whiteSpace=wrap;html=1;" parent="cBmHabTKtmrv-qyFzmQj-18" vertex="1">
          <mxGeometry width="30" height="30" as="geometry">
            <mxRectangle width="30" height="30" as="alternateBounds" />
          </mxGeometry>
        </mxCell>
        <mxCell id="cBmHabTKtmrv-qyFzmQj-20" value="username" style="shape=partialRectangle;connectable=0;fillColor=none;top=0;left=0;bottom=0;right=0;align=left;spacingLeft=6;overflow=hidden;whiteSpace=wrap;html=1;" parent="cBmHabTKtmrv-qyFzmQj-18" vertex="1">
          <mxGeometry x="30" width="150" height="30" as="geometry">
            <mxRectangle width="150" height="30" as="alternateBounds" />
          </mxGeometry>
        </mxCell>
        <mxCell id="cBmHabTKtmrv-qyFzmQj-21" value="" style="shape=tableRow;horizontal=0;startSize=0;swimlaneHead=0;swimlaneBody=0;fillColor=none;collapsible=0;dropTarget=0;points=[[0,0.5],[1,0.5]];portConstraint=eastwest;top=0;left=0;right=0;bottom=0;" parent="cBmHabTKtmrv-qyFzmQj-14" vertex="1">
          <mxGeometry y="120" width="180" height="30" as="geometry" />
        </mxCell>
        <mxCell id="cBmHabTKtmrv-qyFzmQj-22" value="N" style="shape=partialRectangle;connectable=0;fillColor=none;top=0;left=0;bottom=0;right=0;editable=1;overflow=hidden;whiteSpace=wrap;html=1;" parent="cBmHabTKtmrv-qyFzmQj-21" vertex="1">
          <mxGeometry width="30" height="30" as="geometry">
            <mxRectangle width="30" height="30" as="alternateBounds" />
          </mxGeometry>
        </mxCell>
        <mxCell id="cBmHabTKtmrv-qyFzmQj-23" value="profile_picture" style="shape=partialRectangle;connectable=0;fillColor=none;top=0;left=0;bottom=0;right=0;align=left;spacingLeft=6;overflow=hidden;whiteSpace=wrap;html=1;" parent="cBmHabTKtmrv-qyFzmQj-21" vertex="1">
          <mxGeometry x="30" width="150" height="30" as="geometry">
            <mxRectangle width="150" height="30" as="alternateBounds" />
          </mxGeometry>
        </mxCell>
        <mxCell id="cBmHabTKtmrv-qyFzmQj-33" value="" style="edgeStyle=entityRelationEdgeStyle;fontSize=12;html=1;endArrow=ERmandOne;startArrow=ERmandOne;rounded=0;exitX=1;exitY=0.5;exitDx=0;exitDy=0;entryX=0;entryY=0.5;entryDx=0;entryDy=0;" parent="1" source="cBmHabTKtmrv-qyFzmQj-2" target="cBmHabTKtmrv-qyFzmQj-14" edge="1">
          <mxGeometry width="100" height="100" relative="1" as="geometry">
            <mxPoint x="466.5" y="860" as="sourcePoint" />
            <mxPoint x="566.5" y="760" as="targetPoint" />
          </mxGeometry>
        </mxCell>
        <mxCell id="cBmHabTKtmrv-qyFzmQj-34" value="posts" style="shape=table;startSize=30;container=1;collapsible=1;childLayout=tableLayout;fixedRows=1;rowLines=0;fontStyle=1;align=center;resizeLast=1;html=1;" parent="1" vertex="1">
          <mxGeometry x="1016.5" y="710" width="180" height="150" as="geometry" />
        </mxCell>
        <mxCell id="cBmHabTKtmrv-qyFzmQj-35" value="" style="shape=tableRow;horizontal=0;startSize=0;swimlaneHead=0;swimlaneBody=0;fillColor=none;collapsible=0;dropTarget=0;points=[[0,0.5],[1,0.5]];portConstraint=eastwest;top=0;left=0;right=0;bottom=1;" parent="cBmHabTKtmrv-qyFzmQj-34" vertex="1">
          <mxGeometry y="30" width="180" height="30" as="geometry" />
        </mxCell>
        <mxCell id="cBmHabTKtmrv-qyFzmQj-36" value="PK" style="shape=partialRectangle;connectable=0;fillColor=none;top=0;left=0;bottom=0;right=0;fontStyle=1;overflow=hidden;whiteSpace=wrap;html=1;" parent="cBmHabTKtmrv-qyFzmQj-35" vertex="1">
          <mxGeometry width="30" height="30" as="geometry">
            <mxRectangle width="30" height="30" as="alternateBounds" />
          </mxGeometry>
        </mxCell>
        <mxCell id="cBmHabTKtmrv-qyFzmQj-37" value="id" style="shape=partialRectangle;connectable=0;fillColor=none;top=0;left=0;bottom=0;right=0;align=left;spacingLeft=6;fontStyle=5;overflow=hidden;whiteSpace=wrap;html=1;" parent="cBmHabTKtmrv-qyFzmQj-35" vertex="1">
          <mxGeometry x="30" width="150" height="30" as="geometry">
            <mxRectangle width="150" height="30" as="alternateBounds" />
          </mxGeometry>
        </mxCell>
        <mxCell id="cBmHabTKtmrv-qyFzmQj-47" style="shape=tableRow;horizontal=0;startSize=0;swimlaneHead=0;swimlaneBody=0;fillColor=none;collapsible=0;dropTarget=0;points=[[0,0.5],[1,0.5]];portConstraint=eastwest;top=0;left=0;right=0;bottom=0;" parent="cBmHabTKtmrv-qyFzmQj-34" vertex="1">
          <mxGeometry y="60" width="180" height="30" as="geometry" />
        </mxCell>
        <mxCell id="cBmHabTKtmrv-qyFzmQj-48" value="FK" style="shape=partialRectangle;connectable=0;fillColor=none;top=0;left=0;bottom=0;right=0;editable=1;overflow=hidden;whiteSpace=wrap;html=1;" parent="cBmHabTKtmrv-qyFzmQj-47" vertex="1">
          <mxGeometry width="30" height="30" as="geometry">
            <mxRectangle width="30" height="30" as="alternateBounds" />
          </mxGeometry>
        </mxCell>
        <mxCell id="cBmHabTKtmrv-qyFzmQj-49" value="profile_id" style="shape=partialRectangle;connectable=0;fillColor=none;top=0;left=0;bottom=0;right=0;align=left;spacingLeft=6;overflow=hidden;whiteSpace=wrap;html=1;" parent="cBmHabTKtmrv-qyFzmQj-47" vertex="1">
          <mxGeometry x="30" width="150" height="30" as="geometry">
            <mxRectangle width="150" height="30" as="alternateBounds" />
          </mxGeometry>
        </mxCell>
        <mxCell id="cBmHabTKtmrv-qyFzmQj-41" value="" style="shape=tableRow;horizontal=0;startSize=0;swimlaneHead=0;swimlaneBody=0;fillColor=none;collapsible=0;dropTarget=0;points=[[0,0.5],[1,0.5]];portConstraint=eastwest;top=0;left=0;right=0;bottom=0;" parent="cBmHabTKtmrv-qyFzmQj-34" vertex="1">
          <mxGeometry y="90" width="180" height="30" as="geometry" />
        </mxCell>
        <mxCell id="cBmHabTKtmrv-qyFzmQj-42" value="N" style="shape=partialRectangle;connectable=0;fillColor=none;top=0;left=0;bottom=0;right=0;editable=1;overflow=hidden;whiteSpace=wrap;html=1;" parent="cBmHabTKtmrv-qyFzmQj-41" vertex="1">
          <mxGeometry width="30" height="30" as="geometry">
            <mxRectangle width="30" height="30" as="alternateBounds" />
          </mxGeometry>
        </mxCell>
        <mxCell id="cBmHabTKtmrv-qyFzmQj-43" value="description" style="shape=partialRectangle;connectable=0;fillColor=none;top=0;left=0;bottom=0;right=0;align=left;spacingLeft=6;overflow=hidden;whiteSpace=wrap;html=1;" parent="cBmHabTKtmrv-qyFzmQj-41" vertex="1">
          <mxGeometry x="30" width="150" height="30" as="geometry">
            <mxRectangle width="150" height="30" as="alternateBounds" />
          </mxGeometry>
        </mxCell>
        <mxCell id="cBmHabTKtmrv-qyFzmQj-44" value="" style="shape=tableRow;horizontal=0;startSize=0;swimlaneHead=0;swimlaneBody=0;fillColor=none;collapsible=0;dropTarget=0;points=[[0,0.5],[1,0.5]];portConstraint=eastwest;top=0;left=0;right=0;bottom=0;" parent="cBmHabTKtmrv-qyFzmQj-34" vertex="1">
          <mxGeometry y="120" width="180" height="30" as="geometry" />
        </mxCell>
        <mxCell id="cBmHabTKtmrv-qyFzmQj-45" value="" style="shape=partialRectangle;connectable=0;fillColor=none;top=0;left=0;bottom=0;right=0;editable=1;overflow=hidden;whiteSpace=wrap;html=1;" parent="cBmHabTKtmrv-qyFzmQj-44" vertex="1">
          <mxGeometry width="30" height="30" as="geometry">
            <mxRectangle width="30" height="30" as="alternateBounds" />
          </mxGeometry>
        </mxCell>
        <mxCell id="cBmHabTKtmrv-qyFzmQj-46" value="date" style="shape=partialRectangle;connectable=0;fillColor=none;top=0;left=0;bottom=0;right=0;align=left;spacingLeft=6;overflow=hidden;whiteSpace=wrap;html=1;" parent="cBmHabTKtmrv-qyFzmQj-44" vertex="1">
          <mxGeometry x="30" width="150" height="30" as="geometry">
            <mxRectangle width="150" height="30" as="alternateBounds" />
          </mxGeometry>
        </mxCell>
        <mxCell id="cBmHabTKtmrv-qyFzmQj-50" value="" style="edgeStyle=entityRelationEdgeStyle;fontSize=12;html=1;endArrow=ERzeroToMany;startArrow=ERmandOne;rounded=0;entryX=0;entryY=0.5;entryDx=0;entryDy=0;exitX=1;exitY=0.5;exitDx=0;exitDy=0;" parent="1" source="cBmHabTKtmrv-qyFzmQj-15" target="cBmHabTKtmrv-qyFzmQj-35" edge="1">
          <mxGeometry width="100" height="100" relative="1" as="geometry">
            <mxPoint x="816.5" y="830" as="sourcePoint" />
            <mxPoint x="916.5" y="730" as="targetPoint" />
          </mxGeometry>
        </mxCell>
        <mxCell id="cBmHabTKtmrv-qyFzmQj-52" value="post_comments" style="shape=table;startSize=30;container=1;collapsible=1;childLayout=tableLayout;fixedRows=1;rowLines=0;fontStyle=1;align=center;resizeLast=1;html=1;" parent="1" vertex="1">
          <mxGeometry x="786.5" y="940" width="180" height="150" as="geometry" />
        </mxCell>
        <mxCell id="cBmHabTKtmrv-qyFzmQj-80" style="shape=tableRow;horizontal=0;startSize=0;swimlaneHead=0;swimlaneBody=0;fillColor=none;collapsible=0;dropTarget=0;points=[[0,0.5],[1,0.5]];portConstraint=eastwest;top=0;left=0;right=0;bottom=0;" parent="cBmHabTKtmrv-qyFzmQj-52" vertex="1">
          <mxGeometry y="30" width="180" height="30" as="geometry" />
        </mxCell>
        <mxCell id="cBmHabTKtmrv-qyFzmQj-81" value="FK1" style="shape=partialRectangle;connectable=0;fillColor=none;top=0;left=0;bottom=0;right=0;editable=1;overflow=hidden;whiteSpace=wrap;html=1;" parent="cBmHabTKtmrv-qyFzmQj-80" vertex="1">
          <mxGeometry width="30" height="30" as="geometry">
            <mxRectangle width="30" height="30" as="alternateBounds" />
          </mxGeometry>
        </mxCell>
        <mxCell id="cBmHabTKtmrv-qyFzmQj-82" value="profile_id" style="shape=partialRectangle;connectable=0;fillColor=none;top=0;left=0;bottom=0;right=0;align=left;spacingLeft=6;overflow=hidden;whiteSpace=wrap;html=1;" parent="cBmHabTKtmrv-qyFzmQj-80" vertex="1">
          <mxGeometry x="30" width="150" height="30" as="geometry">
            <mxRectangle width="150" height="30" as="alternateBounds" />
          </mxGeometry>
        </mxCell>
        <mxCell id="cBmHabTKtmrv-qyFzmQj-83" style="shape=tableRow;horizontal=0;startSize=0;swimlaneHead=0;swimlaneBody=0;fillColor=none;collapsible=0;dropTarget=0;points=[[0,0.5],[1,0.5]];portConstraint=eastwest;top=0;left=0;right=0;bottom=0;" parent="cBmHabTKtmrv-qyFzmQj-52" vertex="1">
          <mxGeometry y="60" width="180" height="30" as="geometry" />
        </mxCell>
        <mxCell id="cBmHabTKtmrv-qyFzmQj-84" value="FK2" style="shape=partialRectangle;connectable=0;fillColor=none;top=0;left=0;bottom=0;right=0;editable=1;overflow=hidden;whiteSpace=wrap;html=1;" parent="cBmHabTKtmrv-qyFzmQj-83" vertex="1">
          <mxGeometry width="30" height="30" as="geometry">
            <mxRectangle width="30" height="30" as="alternateBounds" />
          </mxGeometry>
        </mxCell>
        <mxCell id="cBmHabTKtmrv-qyFzmQj-85" value="post_id" style="shape=partialRectangle;connectable=0;fillColor=none;top=0;left=0;bottom=0;right=0;align=left;spacingLeft=6;overflow=hidden;whiteSpace=wrap;html=1;" parent="cBmHabTKtmrv-qyFzmQj-83" vertex="1">
          <mxGeometry x="30" width="150" height="30" as="geometry">
            <mxRectangle width="150" height="30" as="alternateBounds" />
          </mxGeometry>
        </mxCell>
        <mxCell id="cBmHabTKtmrv-qyFzmQj-56" value="" style="shape=tableRow;horizontal=0;startSize=0;swimlaneHead=0;swimlaneBody=0;fillColor=none;collapsible=0;dropTarget=0;points=[[0,0.5],[1,0.5]];portConstraint=eastwest;top=0;left=0;right=0;bottom=0;" parent="cBmHabTKtmrv-qyFzmQj-52" vertex="1">
          <mxGeometry y="90" width="180" height="30" as="geometry" />
        </mxCell>
        <mxCell id="cBmHabTKtmrv-qyFzmQj-57" value="" style="shape=partialRectangle;connectable=0;fillColor=none;top=0;left=0;bottom=0;right=0;editable=1;overflow=hidden;whiteSpace=wrap;html=1;" parent="cBmHabTKtmrv-qyFzmQj-56" vertex="1">
          <mxGeometry width="30" height="30" as="geometry">
            <mxRectangle width="30" height="30" as="alternateBounds" />
          </mxGeometry>
        </mxCell>
        <mxCell id="cBmHabTKtmrv-qyFzmQj-58" value="date" style="shape=partialRectangle;connectable=0;fillColor=none;top=0;left=0;bottom=0;right=0;align=left;spacingLeft=6;overflow=hidden;whiteSpace=wrap;html=1;" parent="cBmHabTKtmrv-qyFzmQj-56" vertex="1">
          <mxGeometry x="30" width="150" height="30" as="geometry">
            <mxRectangle width="150" height="30" as="alternateBounds" />
          </mxGeometry>
        </mxCell>
        <mxCell id="cBmHabTKtmrv-qyFzmQj-59" value="" style="shape=tableRow;horizontal=0;startSize=0;swimlaneHead=0;swimlaneBody=0;fillColor=none;collapsible=0;dropTarget=0;points=[[0,0.5],[1,0.5]];portConstraint=eastwest;top=0;left=0;right=0;bottom=0;" parent="cBmHabTKtmrv-qyFzmQj-52" vertex="1">
          <mxGeometry y="120" width="180" height="30" as="geometry" />
        </mxCell>
        <mxCell id="cBmHabTKtmrv-qyFzmQj-60" value="" style="shape=partialRectangle;connectable=0;fillColor=none;top=0;left=0;bottom=0;right=0;editable=1;overflow=hidden;whiteSpace=wrap;html=1;" parent="cBmHabTKtmrv-qyFzmQj-59" vertex="1">
          <mxGeometry width="30" height="30" as="geometry">
            <mxRectangle width="30" height="30" as="alternateBounds" />
          </mxGeometry>
        </mxCell>
        <mxCell id="cBmHabTKtmrv-qyFzmQj-61" value="content" style="shape=partialRectangle;connectable=0;fillColor=none;top=0;left=0;bottom=0;right=0;align=left;spacingLeft=6;overflow=hidden;whiteSpace=wrap;html=1;" parent="cBmHabTKtmrv-qyFzmQj-59" vertex="1">
          <mxGeometry x="30" width="150" height="30" as="geometry">
            <mxRectangle width="150" height="30" as="alternateBounds" />
          </mxGeometry>
        </mxCell>
        <mxCell id="cBmHabTKtmrv-qyFzmQj-86" value="" style="edgeStyle=entityRelationEdgeStyle;fontSize=12;html=1;endArrow=ERzeroToMany;startArrow=ERmandOne;rounded=0;entryX=0;entryY=0.5;entryDx=0;entryDy=0;exitX=1.003;exitY=0.921;exitDx=0;exitDy=0;exitPerimeter=0;" parent="1" source="cBmHabTKtmrv-qyFzmQj-15" target="cBmHabTKtmrv-qyFzmQj-80" edge="1">
          <mxGeometry width="100" height="100" relative="1" as="geometry">
            <mxPoint x="766.5" y="810" as="sourcePoint" />
            <mxPoint x="1026.5" y="810" as="targetPoint" />
          </mxGeometry>
        </mxCell>
        <mxCell id="cBmHabTKtmrv-qyFzmQj-88" value="" style="edgeStyle=entityRelationEdgeStyle;fontSize=12;html=1;endArrow=ERzeroToMany;startArrow=ERmandOne;rounded=0;entryX=1;entryY=0.5;entryDx=0;entryDy=0;exitX=0;exitY=0.5;exitDx=0;exitDy=0;" parent="1" source="cBmHabTKtmrv-qyFzmQj-47" target="cBmHabTKtmrv-qyFzmQj-83" edge="1">
          <mxGeometry width="100" height="100" relative="1" as="geometry">
            <mxPoint x="906.5" y="790" as="sourcePoint" />
            <mxPoint x="935.5" y="1007" as="targetPoint" />
          </mxGeometry>
        </mxCell>
        <mxCell id="cBmHabTKtmrv-qyFzmQj-89" value="post_images" style="shape=table;startSize=30;container=1;collapsible=1;childLayout=tableLayout;fixedRows=1;rowLines=0;fontStyle=1;align=center;resizeLast=1;html=1;" parent="1" vertex="1">
          <mxGeometry x="1346.5" y="710" width="180" height="90" as="geometry" />
        </mxCell>
        <mxCell id="cBmHabTKtmrv-qyFzmQj-90" style="shape=tableRow;horizontal=0;startSize=0;swimlaneHead=0;swimlaneBody=0;fillColor=none;collapsible=0;dropTarget=0;points=[[0,0.5],[1,0.5]];portConstraint=eastwest;top=0;left=0;right=0;bottom=0;" parent="cBmHabTKtmrv-qyFzmQj-89" vertex="1">
          <mxGeometry y="30" width="180" height="30" as="geometry" />
        </mxCell>
        <mxCell id="cBmHabTKtmrv-qyFzmQj-91" value="FK" style="shape=partialRectangle;connectable=0;fillColor=none;top=0;left=0;bottom=0;right=0;editable=1;overflow=hidden;whiteSpace=wrap;html=1;" parent="cBmHabTKtmrv-qyFzmQj-90" vertex="1">
          <mxGeometry width="30" height="30" as="geometry">
            <mxRectangle width="30" height="30" as="alternateBounds" />
          </mxGeometry>
        </mxCell>
        <mxCell id="cBmHabTKtmrv-qyFzmQj-92" value="post_id" style="shape=partialRectangle;connectable=0;fillColor=none;top=0;left=0;bottom=0;right=0;align=left;spacingLeft=6;overflow=hidden;whiteSpace=wrap;html=1;" parent="cBmHabTKtmrv-qyFzmQj-90" vertex="1">
          <mxGeometry x="30" width="150" height="30" as="geometry">
            <mxRectangle width="150" height="30" as="alternateBounds" />
          </mxGeometry>
        </mxCell>
        <mxCell id="cBmHabTKtmrv-qyFzmQj-99" value="" style="shape=tableRow;horizontal=0;startSize=0;swimlaneHead=0;swimlaneBody=0;fillColor=none;collapsible=0;dropTarget=0;points=[[0,0.5],[1,0.5]];portConstraint=eastwest;top=0;left=0;right=0;bottom=0;" parent="cBmHabTKtmrv-qyFzmQj-89" vertex="1">
          <mxGeometry y="60" width="180" height="30" as="geometry" />
        </mxCell>
        <mxCell id="cBmHabTKtmrv-qyFzmQj-100" value="" style="shape=partialRectangle;connectable=0;fillColor=none;top=0;left=0;bottom=0;right=0;editable=1;overflow=hidden;whiteSpace=wrap;html=1;" parent="cBmHabTKtmrv-qyFzmQj-99" vertex="1">
          <mxGeometry width="30" height="30" as="geometry">
            <mxRectangle width="30" height="30" as="alternateBounds" />
          </mxGeometry>
        </mxCell>
        <mxCell id="cBmHabTKtmrv-qyFzmQj-101" value="url" style="shape=partialRectangle;connectable=0;fillColor=none;top=0;left=0;bottom=0;right=0;align=left;spacingLeft=6;overflow=hidden;whiteSpace=wrap;html=1;" parent="cBmHabTKtmrv-qyFzmQj-99" vertex="1">
          <mxGeometry x="30" width="150" height="30" as="geometry">
            <mxRectangle width="150" height="30" as="alternateBounds" />
          </mxGeometry>
        </mxCell>
        <mxCell id="cBmHabTKtmrv-qyFzmQj-102" value="" style="edgeStyle=entityRelationEdgeStyle;fontSize=12;html=1;endArrow=ERoneToMany;startArrow=ERmandOne;rounded=0;entryX=0;entryY=0.5;entryDx=0;entryDy=0;exitX=1;exitY=0.5;exitDx=0;exitDy=0;" parent="1" source="cBmHabTKtmrv-qyFzmQj-35" target="cBmHabTKtmrv-qyFzmQj-90" edge="1">
          <mxGeometry width="100" height="100" relative="1" as="geometry">
            <mxPoint x="1236.5" y="890" as="sourcePoint" />
            <mxPoint x="1336.5" y="790" as="targetPoint" />
          </mxGeometry>
        </mxCell>
        <mxCell id="cBmHabTKtmrv-qyFzmQj-103" value="&lt;div&gt;Update: CASCADE&lt;/div&gt;&lt;div&gt;Delete: CASCADE&lt;br&gt;&lt;/div&gt;" style="text;html=1;align=center;verticalAlign=middle;resizable=0;points=[];autosize=1;strokeColor=none;fillColor=none;" parent="1" vertex="1">
          <mxGeometry x="1206.5" y="700" width="130" height="40" as="geometry" />
        </mxCell>
        <mxCell id="cBmHabTKtmrv-qyFzmQj-104" value="&lt;div&gt;Update: CASCADE&lt;/div&gt;&lt;div&gt;Delete: CASCADE&lt;br&gt;&lt;/div&gt;" style="text;html=1;align=center;verticalAlign=middle;resizable=0;points=[];autosize=1;strokeColor=none;fillColor=none;" parent="1" vertex="1">
          <mxGeometry x="1001.5" y="920" width="130" height="40" as="geometry" />
        </mxCell>
        <mxCell id="cBmHabTKtmrv-qyFzmQj-105" value="&lt;div&gt;Update: CASCADE&lt;/div&gt;&lt;div&gt;Delete: CASCADE&lt;br&gt;&lt;/div&gt;" style="text;html=1;align=center;verticalAlign=middle;resizable=0;points=[];autosize=1;strokeColor=none;fillColor=none;" parent="1" vertex="1">
          <mxGeometry x="616.5" y="900" width="130" height="40" as="geometry" />
        </mxCell>
        <mxCell id="cBmHabTKtmrv-qyFzmQj-106" value="&lt;div&gt;Update: CASCADE&lt;/div&gt;&lt;div&gt;Delete: CASCADE&lt;br&gt;&lt;/div&gt;" style="text;html=1;align=center;verticalAlign=middle;resizable=0;points=[];autosize=1;strokeColor=none;fillColor=none;" parent="1" vertex="1">
          <mxGeometry x="830" y="760" width="130" height="40" as="geometry" />
        </mxCell>
        <mxCell id="cBmHabTKtmrv-qyFzmQj-107" value="&lt;div&gt;Update: CASCADE&lt;/div&gt;&lt;div&gt;Delete: CASCADE&lt;br&gt;&lt;/div&gt;" style="text;html=1;align=center;verticalAlign=middle;resizable=0;points=[];autosize=1;strokeColor=none;fillColor=none;" parent="1" vertex="1">
          <mxGeometry x="400" y="790" width="130" height="40" as="geometry" />
        </mxCell>
        <mxCell id="cBmHabTKtmrv-qyFzmQj-111" value="follows" style="shape=table;startSize=30;container=1;collapsible=1;childLayout=tableLayout;fixedRows=1;rowLines=0;fontStyle=1;align=center;resizeLast=1;html=1;whiteSpace=wrap;" parent="1" vertex="1">
          <mxGeometry x="576.5" y="530" width="190" height="90" as="geometry" />
        </mxCell>
        <mxCell id="cBmHabTKtmrv-qyFzmQj-112" value="" style="shape=tableRow;horizontal=0;startSize=0;swimlaneHead=0;swimlaneBody=0;fillColor=none;collapsible=0;dropTarget=0;points=[[0,0.5],[1,0.5]];portConstraint=eastwest;top=0;left=0;right=0;bottom=0;html=1;" parent="cBmHabTKtmrv-qyFzmQj-111" vertex="1">
          <mxGeometry y="30" width="190" height="30" as="geometry" />
        </mxCell>
        <mxCell id="cBmHabTKtmrv-qyFzmQj-113" value="PK,FK1" style="shape=partialRectangle;connectable=0;fillColor=none;top=0;left=0;bottom=0;right=0;fontStyle=1;overflow=hidden;html=1;whiteSpace=wrap;" parent="cBmHabTKtmrv-qyFzmQj-112" vertex="1">
          <mxGeometry width="60" height="30" as="geometry">
            <mxRectangle width="60" height="30" as="alternateBounds" />
          </mxGeometry>
        </mxCell>
        <mxCell id="cBmHabTKtmrv-qyFzmQj-114" value="profile_id" style="shape=partialRectangle;connectable=0;fillColor=none;top=0;left=0;bottom=0;right=0;align=left;spacingLeft=6;fontStyle=5;overflow=hidden;html=1;whiteSpace=wrap;" parent="cBmHabTKtmrv-qyFzmQj-112" vertex="1">
          <mxGeometry x="60" width="130" height="30" as="geometry">
            <mxRectangle width="130" height="30" as="alternateBounds" />
          </mxGeometry>
        </mxCell>
        <mxCell id="cBmHabTKtmrv-qyFzmQj-115" value="" style="shape=tableRow;horizontal=0;startSize=0;swimlaneHead=0;swimlaneBody=0;fillColor=none;collapsible=0;dropTarget=0;points=[[0,0.5],[1,0.5]];portConstraint=eastwest;top=0;left=0;right=0;bottom=1;html=1;" parent="cBmHabTKtmrv-qyFzmQj-111" vertex="1">
          <mxGeometry y="60" width="190" height="30" as="geometry" />
        </mxCell>
        <mxCell id="cBmHabTKtmrv-qyFzmQj-116" value="PK,FK2" style="shape=partialRectangle;connectable=0;fillColor=none;top=0;left=0;bottom=0;right=0;fontStyle=1;overflow=hidden;html=1;whiteSpace=wrap;" parent="cBmHabTKtmrv-qyFzmQj-115" vertex="1">
          <mxGeometry width="60" height="30" as="geometry">
            <mxRectangle width="60" height="30" as="alternateBounds" />
          </mxGeometry>
        </mxCell>
        <mxCell id="cBmHabTKtmrv-qyFzmQj-117" value="following_profile_id" style="shape=partialRectangle;connectable=0;fillColor=none;top=0;left=0;bottom=0;right=0;align=left;spacingLeft=6;fontStyle=5;overflow=hidden;html=1;whiteSpace=wrap;" parent="cBmHabTKtmrv-qyFzmQj-115" vertex="1">
          <mxGeometry x="60" width="130" height="30" as="geometry">
            <mxRectangle width="130" height="30" as="alternateBounds" />
          </mxGeometry>
        </mxCell>
        <mxCell id="cBmHabTKtmrv-qyFzmQj-124" value="" style="fontSize=12;html=1;endArrow=ERzeroToMany;startArrow=ERmandOne;rounded=0;entryX=0;entryY=0.5;entryDx=0;entryDy=0;exitX=0;exitY=0.25;exitDx=0;exitDy=0;" parent="1" source="cBmHabTKtmrv-qyFzmQj-14" target="cBmHabTKtmrv-qyFzmQj-112" edge="1">
          <mxGeometry width="100" height="100" relative="1" as="geometry">
            <mxPoint x="550" y="720" as="sourcePoint" />
            <mxPoint x="540" y="620" as="targetPoint" />
            <Array as="points">
              <mxPoint x="500" y="748" />
              <mxPoint x="500" y="575" />
            </Array>
          </mxGeometry>
        </mxCell>
        <mxCell id="cBmHabTKtmrv-qyFzmQj-125" value="" style="fontSize=12;html=1;endArrow=ERzeroToMany;startArrow=ERmandOne;rounded=0;entryX=1;entryY=0.5;entryDx=0;entryDy=0;exitX=1;exitY=0.135;exitDx=0;exitDy=0;exitPerimeter=0;" parent="1" source="cBmHabTKtmrv-qyFzmQj-15" target="cBmHabTKtmrv-qyFzmQj-115" edge="1">
          <mxGeometry width="100" height="100" relative="1" as="geometry">
            <mxPoint x="760" y="745" as="sourcePoint" />
            <mxPoint x="897" y="585" as="targetPoint" />
            <Array as="points">
              <mxPoint x="820" y="745" />
              <mxPoint x="820" y="605" />
            </Array>
          </mxGeometry>
        </mxCell>
        <mxCell id="cBmHabTKtmrv-qyFzmQj-126" value="&lt;div&gt;Update: CASCADE&lt;/div&gt;&lt;div&gt;Delete: CASCADE&lt;br&gt;&lt;/div&gt;" style="text;html=1;align=center;verticalAlign=middle;resizable=0;points=[];autosize=1;strokeColor=none;fillColor=none;" parent="1" vertex="1">
          <mxGeometry x="830" y="620" width="130" height="40" as="geometry" />
        </mxCell>
        <mxCell id="cBmHabTKtmrv-qyFzmQj-127" value="&lt;div&gt;Update: CASCADE&lt;/div&gt;&lt;div&gt;Delete: CASCADE&lt;br&gt;&lt;/div&gt;" style="text;html=1;align=center;verticalAlign=middle;resizable=0;points=[];autosize=1;strokeColor=none;fillColor=none;" parent="1" vertex="1">
          <mxGeometry x="360" y="610" width="130" height="40" as="geometry" />
        </mxCell>
      </root>
    </mxGraphModel>
  </diagram>
</mxfile>
